<?xml version="1.0" standalone="no"?>
<!DOCTYPE svg PUBLIC "-//W3C//DTD SVG 20010904//EN"
 "http://www.w3.org/TR/2001/REC-SVG-20010904/DTD/svg10.dtd">
<svg version="1.0" xmlns="http://www.w3.org/2000/svg"
 width="861.000000pt" height="528.000000pt" viewBox="0 0 861.000000 528.000000"
 preserveAspectRatio="xMidYMid meet">
<metadata>
Created by potrace 1.10, written by Peter Selinger 2001-2011
</metadata>
<g transform="translate(0.000000,528.000000) scale(0.100000,-0.100000)"
fill="#000000" stroke="none">
<path d="M4870 3698 c-19 -5 -49 -12 -67 -15 -18 -3 -38 -11 -44 -19 -6 -8
-18 -14 -25 -14 -8 0 -43 -27 -79 -61 -105 -99 -148 -210 -148 -379 0 -81 18
-199 32 -213 6 -6 11 -18 11 -26 0 -16 61 -111 90 -142 19 -19 108 -79 119
-79 4 0 23 -8 42 -17 27 -14 61 -17 164 -17 128 0 132 1 200 34 76 37 195 147
195 180 0 10 4 21 9 24 4 3 18 35 30 72 20 58 22 82 19 203 -2 81 -8 144 -14
152 -6 8 -14 26 -18 42 -9 36 -63 124 -99 161 -95 96 -290 150 -417 114z m206
-197 c57 -33 98 -81 108 -128 4 -18 12 -35 17 -38 16 -10 11 -228 -6 -271 -32
-81 -55 -112 -110 -149 -24 -16 -47 -20 -120 -20 -84 0 -92 2 -130 30 -50 38
-61 51 -84 100 -33 70 -44 173 -30 262 7 43 18 85 26 94 7 8 13 21 13 27 0 21
65 85 105 103 23 10 65 18 100 18 49 1 70 -5 111 -28z"/>
<path d="M1670 3676 c-43 -22 -98 -48 -240 -114 -36 -16 -108 -51 -161 -76
-52 -25 -102 -46 -111 -46 -9 0 -21 -7 -28 -15 -7 -8 -20 -15 -30 -15 -10 0
-23 -7 -30 -15 -7 -8 -19 -15 -26 -15 -7 0 -30 -9 -51 -19 -72 -37 -172 -81
-183 -81 -5 0 -10 -4 -10 -10 0 -5 -5 -10 -11 -10 -12 0 -75 -26 -99 -41 -8
-5 -22 -12 -30 -15 -8 -3 -47 -21 -86 -40 -39 -19 -75 -34 -80 -34 -5 0 -20
-9 -33 -19 -22 -17 -23 -19 -9 -52 8 -19 20 -54 27 -79 18 -68 41 -160 51
-208 5 -23 14 -51 20 -61 5 -11 10 -30 10 -43 0 -13 6 -43 14 -68 13 -42 25
-84 60 -213 27 -101 37 -142 46 -190 5 -27 13 -54 18 -60 5 -7 13 -33 16 -59
4 -26 11 -50 17 -53 5 -4 9 -20 9 -36 0 -16 7 -46 15 -65 13 -32 18 -36 42
-30 16 3 55 9 88 12 110 10 102 2 98 101 -2 49 -10 144 -18 213 -8 69 -17 168
-20 220 -3 52 -11 126 -17 164 l-12 69 30 23 c58 47 94 24 94 -61 0 -25 7 -62
15 -82 8 -19 15 -51 15 -70 0 -19 6 -65 14 -102 19 -87 35 -179 46 -268 4 -40
12 -78 16 -85 4 -7 11 -28 14 -48 5 -34 7 -35 51 -35 24 1 76 6 114 13 39 6
106 15 150 19 l80 8 -3 115 c-1 63 -9 174 -17 245 -15 132 -34 335 -42 435 -4
53 -3 56 27 73 18 9 38 17 46 17 19 0 44 -59 44 -106 0 -19 6 -63 14 -97 20
-86 36 -169 47 -255 5 -40 14 -84 19 -98 6 -14 10 -42 10 -63 0 -21 7 -60 15
-87 8 -27 15 -62 15 -79 1 -60 10 -77 39 -71 14 4 76 11 136 16 61 5 139 16
175 23 l65 14 -2 74 c-1 40 -7 95 -13 122 -5 26 -10 85 -10 130 0 45 -7 127
-15 181 -8 55 -15 123 -15 152 0 29 -5 99 -12 155 l-11 102 24 18 c14 11 37
18 54 17 29 -3 30 -5 37 -67 4 -35 12 -78 18 -94 5 -17 10 -45 10 -64 0 -18 6
-59 14 -91 15 -57 29 -138 46 -264 5 -38 12 -73 15 -78 4 -6 13 -50 20 -98 28
-176 24 -167 78 -170 27 -2 82 4 124 12 41 9 99 16 128 16 30 0 65 4 79 10
l26 10 0 649 c0 507 -3 651 -12 659 -7 6 -35 15 -63 21 -27 6 -79 18 -115 27
-141 35 -177 44 -220 54 -25 7 -65 18 -90 26 -25 8 -55 14 -66 14 -12 0 -38 7
-57 15 -20 8 -47 15 -61 15 -13 0 -37 7 -52 15 -16 8 -43 15 -60 15 -18 0 -45
7 -60 15 -16 8 -46 15 -66 15 -20 0 -40 5 -43 10 -10 16 -57 10 -105 -14z"/>
<path d="M3234 3675 c-2 -11 -3 -229 -2 -485 l3 -465 100 0 100 0 5 170 5 170
95 3 c52 2 104 1 116 -2 23 -6 52 -69 84 -181 31 -108 53 -155 73 -160 12 -3
60 -5 107 -3 95 3 105 12 76 70 -9 17 -16 38 -16 47 0 9 -7 29 -15 45 -8 15
-15 36 -15 45 0 9 -6 28 -14 42 -7 14 -16 42 -20 61 -8 43 -21 48 -123 48 -39
0 -74 4 -77 8 -11 19 24 49 64 55 70 9 149 83 174 162 11 36 11 126 1 174 -12
54 -63 120 -122 158 -69 44 -123 52 -391 55 -196 3 -203 2 -208 -17z m438
-161 c55 -26 73 -60 73 -136 0 -55 -4 -70 -22 -90 -35 -37 -116 -60 -203 -56
l-75 3 -3 148 -3 147 100 0 c71 0 110 -5 133 -16z"/>
<path d="M4169 3689 c-5 -3 -8 -206 -7 -485 l3 -479 95 0 95 0 3 482 2 482
-91 3 c-50 2 -95 0 -100 -3z"/>
<path d="M5460 3610 l0 -80 193 -2 192 -3 0 -25 c0 -20 -6 -25 -38 -32 -20 -4
-49 -15 -62 -24 l-25 -16 2 -352 3 -351 100 0 100 0 2 380 c1 209 2 390 2 402
1 22 5 22 124 25 l122 3 0 75 0 75 -357 3 -358 2 0 -80z"/>
<path d="M3585 2551 c-11 -5 -37 -10 -57 -10 -79 -2 -227 -107 -270 -192 -49
-97 -57 -129 -64 -230 -6 -101 6 -239 24 -276 5 -10 18 -36 28 -58 27 -58 108
-139 173 -173 74 -38 158 -55 256 -49 97 5 153 19 205 52 22 14 43 25 47 25
19 1 113 129 113 154 0 7 7 27 15 44 12 23 15 57 13 139 l-3 108 -175 3 c-96
1 -184 0 -195 -2 -18 -5 -20 -13 -20 -73 l1 -68 89 -3 c50 -2 94 -7 98 -11 17
-17 -4 -89 -36 -126 -81 -94 -244 -97 -340 -6 -69 65 -82 107 -82 261 0 155
10 183 87 256 89 84 221 85 307 3 23 -22 41 -46 41 -53 0 -21 24 -26 126 -26
99 0 107 4 85 48 -4 9 -19 39 -32 66 -27 54 -103 127 -163 157 -67 33 -233 57
-271 40z"/>
<path d="M7600 2551 c-14 -5 -39 -9 -57 -10 -33 -1 -96 -29 -146 -65 -75 -55
-119 -174 -97 -267 20 -88 47 -121 130 -160 25 -12 53 -26 64 -31 10 -5 39
-13 65 -18 71 -13 133 -31 163 -46 14 -8 32 -14 40 -14 7 0 26 -11 41 -25 21
-20 27 -35 27 -67 0 -35 -6 -46 -42 -80 -41 -38 -42 -38 -125 -38 -103 0 -150
24 -187 98 l-24 47 -86 -1 c-48 -1 -89 -4 -92 -7 -3 -3 -1 -30 5 -61 29 -160
165 -246 386 -246 89 0 161 12 208 36 16 8 34 14 40 14 6 0 32 23 58 50 57 61
75 126 65 229 -6 54 -13 72 -42 108 -56 68 -115 103 -205 122 -19 4 -41 11
-47 15 -7 4 -33 11 -60 16 -57 10 -109 29 -140 52 -46 32 -38 139 12 158 13 5
27 14 31 19 10 17 132 13 166 -5 42 -21 67 -48 71 -76 3 -22 6 -23 103 -23 98
0 100 0 103 24 2 14 -6 45 -19 70 -27 55 -106 141 -129 141 -9 0 -21 5 -26 10
-22 22 -213 45 -254 31z"/>
<path d="M4416 2506 c-9 -19 -16 -43 -16 -53 0 -10 -4 -23 -9 -28 -6 -6 -14
-28 -20 -50 -9 -37 -23 -81 -42 -130 -4 -11 -18 -51 -30 -90 -12 -38 -28 -83
-34 -100 -6 -16 -20 -57 -30 -90 -10 -33 -24 -73 -31 -90 -7 -16 -20 -57 -30
-90 -9 -33 -23 -74 -31 -92 -7 -17 -13 -38 -13 -46 0 -9 -4 -19 -10 -22 -5 -3
-10 -16 -10 -29 0 -21 3 -22 104 -21 57 0 108 3 111 7 4 4 11 24 16 45 16 74
34 130 48 147 12 14 39 16 190 16 l176 0 17 -43 c9 -23 19 -53 23 -67 4 -14
13 -43 21 -65 l15 -40 97 0 97 0 3 28 c2 15 -4 41 -12 59 -9 17 -16 38 -16 47
0 9 -7 29 -15 45 -8 15 -15 38 -15 50 0 12 -7 31 -15 42 -8 10 -15 28 -15 39
0 11 -7 33 -15 49 -8 15 -15 36 -15 45 0 9 -7 29 -15 45 -8 15 -15 36 -15 45
0 9 -6 28 -14 43 -8 15 -17 41 -21 59 -4 19 -11 40 -16 49 -12 22 -69 196 -69
210 0 7 -6 26 -14 43 -8 18 -16 40 -20 50 -5 15 -21 17 -150 17 l-144 0 -16
-34z m181 -188 c13 -17 43 -112 43 -135 0 -11 7 -28 15 -39 8 -10 15 -30 15
-44 0 -14 7 -36 15 -50 8 -14 14 -44 15 -67 l0 -43 -124 0 c-69 0 -127 4 -130
9 -7 11 17 109 33 140 6 11 11 28 11 39 0 11 7 33 15 48 8 16 15 39 15 52 0
31 37 102 54 102 7 0 18 -6 23 -12z"/>
<path d="M5185 2528 c-3 -7 -4 -224 -3 -483 l3 -470 93 -1 c51 -1 95 3 98 8 3
5 5 168 5 361 -2 291 1 355 12 372 14 18 15 18 35 -14 11 -18 23 -53 27 -77 3
-24 10 -46 16 -49 5 -4 9 -18 9 -32 0 -14 6 -39 14 -56 15 -36 33 -102 45
-162 4 -22 13 -51 18 -65 6 -14 18 -52 28 -85 9 -33 23 -78 31 -100 8 -23 14
-50 14 -62 0 -11 6 -25 13 -30 14 -11 202 -12 212 -1 4 4 11 24 16 45 14 65
31 127 45 160 8 17 14 40 14 51 0 11 7 33 15 48 8 16 15 39 15 50 0 12 7 35
15 50 8 16 15 39 15 50 0 12 7 35 15 50 8 16 15 39 15 50 0 12 7 38 15 57 8
20 15 46 15 57 0 25 40 81 52 74 4 -3 8 -168 8 -367 0 -199 4 -367 8 -372 4
-6 49 -11 100 -11 86 -1 93 1 97 20 3 12 4 228 3 481 l-3 460 -176 3 -177 2
-16 -34 c-9 -19 -16 -43 -16 -54 0 -11 -7 -33 -15 -48 -8 -16 -15 -42 -15 -59
0 -16 -7 -39 -15 -49 -8 -11 -15 -34 -15 -50 -1 -17 -7 -42 -15 -56 -8 -14
-14 -39 -15 -57 0 -17 -4 -34 -9 -37 -5 -4 -12 -24 -16 -47 -4 -22 -13 -53
-21 -67 -8 -15 -14 -39 -14 -53 0 -30 -23 -54 -44 -46 -8 3 -17 24 -21 46 -4
23 -11 43 -16 47 -5 3 -9 19 -9 35 0 17 -6 42 -14 57 -7 15 -17 46 -21 69 -4
24 -11 45 -16 49 -5 3 -9 19 -9 36 0 16 -6 42 -14 56 -14 27 -29 80 -46 159
-5 24 -16 56 -25 73 l-16 30 -170 0 c-126 0 -171 -3 -174 -12z"/>
<path d="M6505 2528 c-3 -7 -4 -224 -3 -481 l3 -468 323 -2 c369 -2 336 -12
330 94 l-3 54 -221 3 c-220 2 -222 3 -228 25 -8 32 -7 190 2 204 6 9 58 13
182 15 l175 3 3 83 c2 62 0 82 -10 82 -7 1 -84 1 -171 0 -108 -1 -163 3 -173
11 -18 15 -20 199 -2 217 9 9 73 12 225 12 l213 0 5 23 c4 13 5 48 3 78 l-3
54 -323 3 c-253 2 -324 0 -327 -10z"/>
<path d="M2594 1940 c-56 -4 -107 -10 -113 -14 -11 -7 -192 -30 -366 -46 -55
-5 -116 -14 -135 -19 -19 -6 -63 -11 -97 -11 -34 0 -73 -4 -86 -9 -24 -9 -24
-11 -12 -57 l12 -48 74 -18 c41 -10 92 -18 114 -18 22 0 62 -7 89 -15 27 -8
68 -15 90 -15 23 0 63 -7 90 -15 27 -8 68 -15 90 -15 23 0 63 -7 90 -15 27 -8
64 -15 82 -15 18 0 59 -7 91 -15 31 -8 74 -15 95 -15 l38 0 0 185 0 185 -22
-1 c-13 -1 -69 -5 -124 -9z"/>
</g>
</svg>
